<svg xmlns="http://www.w3.org/2000/svg" width="191.91" height="106.406" viewBox="0 0 191.91 106.406">
  <path style="fill:currentColor;fill-rule:evenodd;" d="M84.3,0h101.1l6.5,5.6H84.3V4.9H141c0,0,0-0.1-0.1-0.1l-5-4.1H84.3V0z M120.8,28.4v0.8H84.4
	c-3.1,2.2-6.3,4.3-9.4,6.5H48.3c-4.6,3.2-9.2,6.4-13.8,9.6H14.4v-0.7h19.8L48,35h26.7l9.5-6.5H120.8z M120.8,31v0.7H84.5
	c-2.9,2-5.8,4.1-8.7,6.1H49c-4.7,3.2-9.4,6.3-14.1,9.5h-23v-0.7h22.7l14.1-9.6h26.8c2.9-2,5.8-4,8.6-6L120.8,31L120.8,31z
	 M84.2,33.3h38.6L139,48.7h47.3c1.8,1.8,3.7,3.6,5.5,5.4v0.1h-48.3l-19.5-18.5H89.9c-3.4,3.2-6.7,6.4-10.1,9.6H49.9
	c-4,3-8.1,5.9-12.1,8.9L2.6,54.1c0,0,0.1,0,0.1-0.1c2.2-1.8,4.5-3.6,6.7-5.3h25.9c4.7-3.2,9.4-6.4,14.1-9.6h27.1
	C79.1,37.2,81.6,35.3,84.2,33.3L84.2,33.3z M99.1,41.7H121l4.9,5.6h-21.8C102.4,45.5,100.8,43.6,99.1,41.7L99.1,41.7z M83.7,48.7
	h4.6c3.3,4.1,6.7,8.1,10,12.2c-1.2,0-4.6,0.3-5.4-0.2L83.7,48.7z M91,48.7h4.7c3.3,4.1,6.7,8.1,10,12.2v0.1c-0.8,0-4.9,0.2-5.3-0.1
	C97.2,56.8,94.1,52.8,91,48.7L91,48.7z M98.3,48.7h4.7c3.3,4.1,6.7,8.1,10,12.2v0.1c-1.3,0-4.4,0.3-5.4-0.1
	C104.5,56.8,101.4,52.8,98.3,48.7L98.3,48.7z M105.2,48.7H127l4.9,5.6v0.1h-21.7C108.5,52.5,106.8,50.6,105.2,48.7L105.2,48.7z
	 M0,56.7h78.4c5.8,5.8,11.5,11.7,17.3,17.5h34.3c5.6-5.8,11.1-11.7,16.7-17.5H191v0.7h-43.9c-4.7,4.9-9.3,9.7-14,14.6l-4.6,4.9
	c-1.1,1.2-2.1,2.4-3.1,3.6h-24c-1.9-1.8-3.8-3.6-5.8-5.4c-2.3-2.1-4.6-4.3-6.7-6.7c-2-2-4.1-4-6.1-6l-4.9-5H0V56.7L0,56.7z
	 M191,60.2v0.8h-43.1l-21.3,22.4h-25.1L82.7,66l-5.6-5.2c0.2-0.2,0.3-0.4,0.5-0.6c8.1,7.4,16.1,14.8,24.2,22.3h24.6l21.3-22.4H191
	L191,60.2z M191,63.7v0.7h-42.1c-6.6,7.1-13.1,14.2-19.7,21.3c0.1,0.1,0.3,0.3,0.4,0.4c6,6.5,12,13,18,19.5H191v0.8h-43.8
	c-6.3-6.8-12.5-13.5-18.8-20.3h-26.9v-0.8h27c6.7-7.2,13.3-14.4,20-21.7L191,63.7L191,63.7z" />
</svg>
