<svg xmlns="http://www.w3.org/2000/svg" width="191.91" height="106.406" viewBox="0 0 191.91 106.406">
  <path style="fill:currentColor;fill-rule:evenodd;" class="cls-1" d="M1858.4,72h101.07l6.54,5.609H1858.4V76.894h56.64a0.531,0.531,0,0,1-.05-0.11l-5.01-4.069H1858.4V72Zm-0.33,9.568h37.18V98.119h-37.18V81.568Zm0.77,0.715V97.4h4.62V82.283h-4.62Zm5.34,0V97.4h5.11V82.283h-5.11Zm5.83,0V97.4h5.33V82.283h-5.33Zm6.1,0V97.4h5.55V82.283h-5.55Zm6.27,0V97.4h5.83V82.283h-5.83Zm6.54,0V97.4h5.56V82.283h-5.56Zm5.94,18.146v0.77h-36.35q-4.695,3.245-9.4,6.488h-26.67q-6.93,4.783-13.85,9.568h-20.13v-0.715h19.85l13.8-9.567h26.67l9.51-6.544h36.57Zm0,2.585v0.714h-36.29q-4.365,3.052-8.74,6.1h-26.78q-7.035,4.755-14.08,9.513h-22.98v-0.715h22.71l14.13-9.568h26.83q4.32-3.024,8.63-6.048h36.57Zm-36.57,2.309h38.6l16.23,15.4h47.34c1.83,1.8,3.67,3.593,5.5,5.389v0.055h-48.28l-19.47-18.476h-34.25q-5.055,4.783-10.12,9.568h-29.8q-6.045,4.453-12.1,8.908l-35.25-.055a1.125,1.125,0,0,0,.11-0.055q3.36-2.667,6.71-5.334h25.9q7.065-4.784,14.13-9.567h27.06Q1854.44,108.237,1858.29,105.322Zm14.91,8.413h21.88l4.89,5.609H1878.2Q1875.7,116.539,1873.2,113.735Zm-15.46,6.983h4.62q5.01,6.1,10.01,12.207c-1.24.015-4.6,0.295-5.39-.165Zm7.32,0h4.67q5.01,6.076,10.01,12.152v0.055c-0.83.013-4.94,0.191-5.28-.11Q1869.765,126.767,1865.06,120.718Zm7.37,0h4.67q5.01,6.076,10.01,12.152v0.055c-1.29.013-4.45,0.32-5.39-.11Q1877.07,126.767,1872.43,120.718Zm6.81,0h21.89l4.89,5.609v0.055H1884.3Q1881.78,123.55,1879.24,120.718Zm-105.13,7.973h78.41q8.655,8.742,17.32,17.486h34.31q8.355-8.742,16.72-17.486h44.26v0.715h-43.88q-7.005,7.286-14.02,14.572l-4.56,4.949c-1.05,1.191-2.09,2.382-3.14,3.574h-23.97c-1.92-1.8-3.85-3.593-5.77-5.389a88.944,88.944,0,0,1-6.66-6.653q-3.045-3.024-6.1-6.049l-4.95-5h-77.97v-0.715Zm191.02,3.465v0.769h-43.11l-21.33,22.38h-25.13l-18.81-17.321-5.55-5.169c0.17-.183.33-0.366,0.5-0.55q12.09,11.135,24.19,22.27h24.58l21.33-22.379h43.33Zm0,3.519v0.715h-42.12q-9.84,10.665-19.68,21.334c0.13,0.129.26,0.257,0.38,0.385q9.015,9.759,18.04,19.521h43.38V178.4h-43.77q-9.375-10.143-18.75-20.29h-26.94v-0.77h27q10-10.83,20.01-21.664h42.45Z" transform="translate(-1774.09 -72)"/>
</svg>
