<svg xmlns="http://www.w3.org/2000/svg" width="170.906" height="170.75" viewBox="0 0 170.906 170.75">
  <path style="fill:#656258;fill-rule:evenodd;" class="cls-1" d="M363.635,543.014c10.823-.154,19.884,1,27.934,3.511,2.528,0.787,6.452,1.565,8.4,2.977q-1.755,4.121-3.511,8.243c-4.669-2.159-10.045-3.454-15.646-4.656-2.9-.623-5.977-0.6-9.083-1.069l-4.656-.076a65,65,0,0,0-14.5,1.45c-12.006,2.768-21.391,6.82-29.919,12.9-3.39,2.416-6.143,5.528-9.388,8.014L307,568.048V567.9l2.824-2.748,7.1-5.8a99.071,99.071,0,0,1,22.21-11.677c4.918-1.909,10.392-2.8,16.1-3.892Zm3.587,20a58.256,58.256,0,0,1,22.21,3.893c17.944,6.95,30.84,18.878,38.162,36.406l-6.106,2.6c-0.529.224-1.894,0.9-2.213,0.687q-0.993-2.137-1.985-4.274c-1.382-2.37-2.709-4.753-4.274-6.946a55.563,55.563,0,0,0-45.794-23.431v-8.93Zm-56.25,65.257h-8.93c-0.413-22.821,11.924-41.3,24.652-51.061a74.34,74.34,0,0,1,11.754-7.48,14.354,14.354,0,0,1,3.969-1.755l3.358,8.243C327.445,584.211,310.938,602.034,310.972,628.268Zm116.469-60.3c1.212,0.4,2.514,2.4,3.282,3.358,2.545,3.168,5.167,6.142,7.48,9.617,9.829,14.767,18.712,39.943,12.517,64.8a100.26,100.26,0,0,1-3.664,12.593,8.315,8.315,0,0,1-1.068,2.595l-8.167-3.358q1.183-3.282,2.366-6.564a105.507,105.507,0,0,0,2.9-13.586,47.137,47.137,0,0,0,.381-12.9c-0.688-4.586-.615-8.658-1.6-12.67a80.982,80.982,0,0,0-12.746-28.392c-2.362-3.312-5.433-5.991-7.861-9.159v-0.153Q424.351,571.064,427.441,567.972Zm-60.219,12.822c7.555-.113,12.679,2.009,18.241,3.588l-0.916,2.137-4.732-1.679a43.94,43.94,0,0,0-12.593-1.756v-2.29Zm-18.165,3.588q0.5,1.068.992,2.137a52.966,52.966,0,0,0-10.838,6.334l-3.892,3.511c-2-1.405-1.51-1.471-.305-2.976l1.831-1.6,4.656-3.435,5.19-2.9Zm18.165,1.221c6.718-.1,11.473,1.8,16.41,3.205l-0.916,2.137-4.045-1.45a38.73,38.73,0,0,0-11.449-1.6V585.6Zm-16.333,3.205q0.5,1.069.992,2.137a45.949,45.949,0,0,0-9.388,5.419l-3.74,3.359H338.6l-1.527-1.527,1.527-1.6,5.342-4.121,4.732-2.671Zm16.333,1.374c3.972-.079,12.781,1.287,14.654,2.977l-0.839,2.06c-4.325-1.135-8-2.7-13.815-2.747v-2.29Zm-14.578,2.9a5.268,5.268,0,0,1,.993,2.137c-4.861,1.456-8.093,5.047-11.678,7.786-1.914-1.343-1.559-1.432-.382-2.9l4.58-3.587C348.166,595.178,350.55,594.432,352.644,593.082Zm48.084,1.6c1.243,0.621,2.367,2.428,3.206,3.511,2.267,2.93,6.295,7.965,7.174,11.983l-2.137.839c-1.78-6.1-6.33-10.187-9.769-14.654v-0.152Zm-112.272.916,8.319,3.435a80.763,80.763,0,0,0-4.655,15.646c-0.729,3.4-.515,6.81-1.069,10.609-0.671,4.6.09,10.794,0.84,14.654,2.614,13.468,6.535,23.061,13.127,32.361,2.184,3.081,5.389,7.719,8.32,9.922L307,688.563q-0.84-.8-1.679-1.6l-6.03-7.1a80.342,80.342,0,0,1-9.464-15.722,106.675,106.675,0,0,1-6.182-18.852q-0.5-3.319-.992-6.64c-0.489-2.752-1.113-8.487-.611-11.525,0.559-3.384.023-6.709,0.611-9.846a114.114,114.114,0,0,1,2.289-11.525C285.994,602.246,287.4,598.907,288.456,595.6Zm108.838,2.519c1.121,0.376,2.136,2.088,2.824,2.976,2.182,2.821,5.716,7.009,6.563,10.915l-2.137.839c-1.08-3.786-5.977-11.043-8.777-13.127Zm-30,2.29q0.039,13.774.077,27.552V627.81l10.456-25.263c3.543,0.612,6.7,4.14,9.159,6.029l-19.463,19.539,25.492-10.533c0.96,3.255,2.041,6.231,2.061,10.686l-27.553.076h0.153L392.943,638.8c0.026,0.051.051,0.1,0.076,0.153-1.97,3.193-3.167,6.822-6.105,9.006l-19.463-19.386,10.533,25.416c-3.237.954-6.386,2.094-10.762,2.137q-0.037-13.737-.076-27.477V628.8q-5.228,12.592-10.457,25.187a22.076,22.076,0,0,1-9.082-6.03v-0.153l19.386-19.386-25.416,10.533a25.754,25.754,0,0,1-2.137-10.762l27.477-.076-25.34-10.456c0.514-2.686,4.109-7.662,6.03-9.083l19.539,19.463-10.533-25.416C358.244,601.121,364.09,600.415,367.3,600.41Zm26.79,0.915a6.039,6.039,0,0,1,1.679,1.756,43.567,43.567,0,0,1,6.717,10.685l-2.214.84c-0.592-2.88-3.4-6.6-5.037-8.7q-1.337-1.45-2.672-2.9Zm-71.973,26.943h-2.29c-0.114-7.343,1.851-12.826,3.587-18.165l2.137,0.763-1.6,4.579A43.568,43.568,0,0,0,322.115,628.268Zm4.808,0h-2.289c-0.116-6.628,1.613-11.535,3.2-16.334a4.663,4.663,0,0,1,2.137.916A41.039,41.039,0,0,0,326.923,628.268Zm4.58,0h-2.29c-0.082-3.9,1.3-12.828,2.977-14.578l2.06,0.916A33.878,33.878,0,0,0,331.5,628.268Zm71.515-.077h2.29c0.1,6.039-1.539,10.24-2.824,14.654l-2.137-.839q0.685-1.984,1.373-3.969A33.975,33.975,0,0,0,403.018,628.191Zm4.579,0h2.366a40.535,40.535,0,0,1-2.366,13.891,7.667,7.667,0,0,1-.992,2.519l-2.061-.916A37.025,37.025,0,0,0,407.6,628.191Zm4.809,0H414.7a42.915,42.915,0,0,1-2.061,13.891c-0.422,1.356-.7,3.412-1.6,4.351l-2.061-.916A41.55,41.55,0,0,0,412.406,628.191Zm11.143,0h9.006c0.385,22.573-11.826,41.239-24.424,50.908a75.06,75.06,0,0,1-11.906,7.632l-4.045,1.832-3.358-8.319c4.817-1.25,10.309-5.566,13.89-8.319C413.969,663.27,423.575,648.06,423.549,628.191ZM334.1,641.929l1.984,3.893c1.562,2.655,3.532,5.9,5.953,7.709l-1.6,1.679-1.222-1.145-2.747-3.358a39.948,39.948,0,0,1-4.351-7.862Zm-4.274,1.756c0.759,0.5,1.872,3.772,2.442,4.732,1.88,3.17,4.349,5.584,6.487,8.4l-1.6,1.6-1.374-1.3-2.366-2.824a34.354,34.354,0,0,1-5.572-9.77Zm-4.427,1.832c0.766,0.507,1.8,3.692,2.366,4.655,1.917,3.27,4.7,7.8,7.632,10l-1.6,1.679-1.221-1.145-2.976-3.511c-2.339-3.091-4.91-6.834-6.183-10.838Zm41.9,39.077v8.93c-22.5.408-40.977-11.718-50.678-24.194a73.7,73.7,0,0,1-7.785-12.06A16.654,16.654,0,0,1,307,653.149l8.166-3.358,0.153,0.076c1.211,4.664,5.42,10.111,8.09,13.586C332.171,674.848,347.307,684.511,367.3,684.594Zm25.187-31.063,1.679,1.6v0.153l-2.976,2.671a41.268,41.268,0,0,1-9.388,5.5l-0.076-.077c-0.165-.733-0.778-1.453-0.687-2.137C384.666,660.2,390.461,656.256,392.485,653.531Zm3.282,3.282,1.679,1.6c-2.1,2.726-10.061,8.4-13.891,9.236q-0.418-1.069-.839-2.138C386.4,664.567,393.72,659.481,395.767,656.813Zm3.358,3.358q0.84,0.8,1.679,1.6l-1.45,1.526-2.595,2.213c-2.619,1.987-7.866,5.834-11.372,6.564l-0.84-2.137C388.676,668.854,396.872,663.2,399.125,660.171ZM367.3,663.987v2.366a36.925,36.925,0,0,1-14.577-2.9q0.381-1.069.763-2.137l3.434,1.221A34.5,34.5,0,0,0,367.3,663.987Zm0,4.656v2.289c-6.651.1-11.434-1.808-16.333-3.205q0.383-1.068.763-2.137l4.2,1.45A39.468,39.468,0,0,0,367.3,668.643Zm0,4.732v2.366c-7.105-.2-13.229-1.313-18.241-3.664l0.84-2.061,4.884,1.68A42.722,42.722,0,0,0,367.3,673.375Zm53.885,8.853,6.411,6.335c-3.19,3.9-7.821,6.992-11.983,9.922a85.85,85.85,0,0,1-28.621,12.823c-2.9.739-5.779,0.962-8.93,1.526a68.39,68.39,0,0,1-21.6.076,121.7,121.7,0,0,1-13.738-2.9l-8.09-2.9,3.358-8.319,7.48,2.671a102.309,102.309,0,0,0,13.051,2.671,41.842,41.842,0,0,0,11.22.382c4.23-.632,8.015-0.391,11.83-1.221,11.036-2.4,20.265-6.194,28.163-11.678C413.356,689.1,418.615,685.656,421.183,682.228Z" transform="translate(-281.844 -543)"/>
</svg>
