<svg xmlns="http://www.w3.org/2000/svg" width="188.906" height="173.875" viewBox="0 0 188.906 173.875">
  <path style="fill:#656258;fill-rule:evenodd;" d="M343.031,33h0.86v85.366H311.556v-0.86h31.475V33Zm3.727,0h0.86v89.322H311.556v-0.8h35.2V33Zm3.726,0h0.86V69.749l9.23,8.2V33h0.86V136.826h-61v-0.057l0.574-.573q5.273-5.7,10.548-11.409h38.928V33Zm14.333,0h0.86V81.9l21.958,18.346V33h0.86v90.583l14.447,13.186v0.057H364.817V33ZM351.344,70.9V75.31l9.23,8.2V79.094Zm0,5.561v4.415l9.23,8.2V84.655Zm0,5.561v4.415l9.23,8.256V90.216Zm0,5.561v21.556l9.23-9.689V95.835ZM296.077,140.61h65.357V206.6h-0.86V170.422h-2.981V206.6h-0.86V170.422h-3.44V206.6h-0.8V170.422h-3.555V206.6h-0.86V169.964q-6.134-6.621-12.269-13.244H281.859v-0.8c0.841-.195,2.6-2.645,3.268-3.325l8.313-8.943C294.039,142.906,295.926,141.569,296.077,140.61Zm69.141,0.4c1.826,0.016,7.511.438,8.543-.287,0.857,0.6,7.151.287,8.886,0.287h23.907c0.368-.019.474-0.316,0.688-0.287l63.523,65.586-0.4.459-0.229.115L420.657,155.8l-0.745.688-15.422,15.88,32.793,33.94-0.573.574L403.859,173H403.8q-8.055,8.283-16.11,16.569l0.86,0.86,15.307,15.88-0.573.574-38.354-39.5a7.182,7.182,0,0,0,.286-0.8V141.012Zm-68.568.458-13.415,14.447h4.414l13.416-14.447H296.65Zm5.562,0L288.8,155.917h4.415l13.415-14.447h-4.414Zm5.618,0-13.415,14.447h4.414l13.415-14.447H307.83Zm27.634,14.447V141.47H313.391l-13.415,14.447h35.488Zm36.978-7.968V167.1l14.39,13.874,0.745-.688L410.854,155.4l-1.491-1.491-5.733-5.962H372.442Z" transform="translate(-281.844 -33)"/>
</svg>
